<mxfile host="app.diagrams.net" modified="2024-01-23T08:28:06.361Z" agent="Mozilla/5.0 (Windows NT 10.0; Win64; x64) AppleWebKit/537.36 (KHTML, like Gecko) Chrome/120.0.0.0 Safari/537.36" etag="A5Phhtn45PWuLmfLg9zH" version="22.1.21" type="google">
  <diagram name="PÃ¡gina-1" id="urGxJ305jiMk8CuC3QDb">
    <mxGraphModel grid="1" page="1" gridSize="10" guides="1" tooltips="1" connect="1" arrows="1" fold="1" pageScale="1" pageWidth="827" pageHeight="1169" math="0" shadow="0">
      <root>
        <mxCell id="0" />
        <mxCell id="1" parent="0" />
        <mxCell id="D8Nsdqt08Oqrvitqr5ih-1" value="Empleados" style="rounded=0;whiteSpace=wrap;html=1;" vertex="1" parent="1">
          <mxGeometry x="610" y="-440" width="120" height="60" as="geometry" />
        </mxCell>
        <mxCell id="D8Nsdqt08Oqrvitqr5ih-2" value="Reservas" style="rounded=0;whiteSpace=wrap;html=1;" vertex="1" parent="1">
          <mxGeometry x="170" y="-700" width="120" height="60" as="geometry" />
        </mxCell>
        <mxCell id="EQmgPOtzV4q--lYFnlzx-1" value="Trabajan" style="rhombus;whiteSpace=wrap;html=1;" vertex="1" parent="1">
          <mxGeometry x="410" y="-450" width="80" height="80" as="geometry" />
        </mxCell>
        <mxCell id="EQmgPOtzV4q--lYFnlzx-2" value="Restaurante" style="rounded=0;whiteSpace=wrap;html=1;" vertex="1" parent="1">
          <mxGeometry x="170" y="-440" width="120" height="60" as="geometry" />
        </mxCell>
        <mxCell id="EQmgPOtzV4q--lYFnlzx-3" value="Come" style="rhombus;whiteSpace=wrap;html=1;" vertex="1" parent="1">
          <mxGeometry x="190" y="-580" width="80" height="80" as="geometry" />
        </mxCell>
        <mxCell id="EQmgPOtzV4q--lYFnlzx-4" value="" style="endArrow=none;html=1;rounded=0;exitX=0.5;exitY=0;exitDx=0;exitDy=0;entryX=0.5;entryY=1;entryDx=0;entryDy=0;" edge="1" parent="1" source="EQmgPOtzV4q--lYFnlzx-3" target="D8Nsdqt08Oqrvitqr5ih-2">
          <mxGeometry width="50" height="50" relative="1" as="geometry">
            <mxPoint x="330" y="-570" as="sourcePoint" />
            <mxPoint x="380" y="-620" as="targetPoint" />
          </mxGeometry>
        </mxCell>
        <mxCell id="EQmgPOtzV4q--lYFnlzx-5" value="" style="endArrow=none;html=1;rounded=0;exitX=0.5;exitY=0;exitDx=0;exitDy=0;entryX=0.5;entryY=1;entryDx=0;entryDy=0;" edge="1" parent="1" source="EQmgPOtzV4q--lYFnlzx-2" target="EQmgPOtzV4q--lYFnlzx-3">
          <mxGeometry width="50" height="50" relative="1" as="geometry">
            <mxPoint x="330" y="-570" as="sourcePoint" />
            <mxPoint x="380" y="-620" as="targetPoint" />
          </mxGeometry>
        </mxCell>
        <mxCell id="EQmgPOtzV4q--lYFnlzx-6" value="" style="endArrow=none;html=1;rounded=0;exitX=1;exitY=0.5;exitDx=0;exitDy=0;" edge="1" parent="1" source="EQmgPOtzV4q--lYFnlzx-2" target="EQmgPOtzV4q--lYFnlzx-1">
          <mxGeometry width="50" height="50" relative="1" as="geometry">
            <mxPoint x="330" y="-570" as="sourcePoint" />
            <mxPoint x="380" y="-620" as="targetPoint" />
          </mxGeometry>
        </mxCell>
        <mxCell id="EQmgPOtzV4q--lYFnlzx-7" value="" style="endArrow=none;html=1;rounded=0;exitX=1;exitY=0.5;exitDx=0;exitDy=0;" edge="1" parent="1" source="EQmgPOtzV4q--lYFnlzx-1" target="D8Nsdqt08Oqrvitqr5ih-1">
          <mxGeometry width="50" height="50" relative="1" as="geometry">
            <mxPoint x="330" y="-570" as="sourcePoint" />
            <mxPoint x="380" y="-620" as="targetPoint" />
          </mxGeometry>
        </mxCell>
        <mxCell id="EQmgPOtzV4q--lYFnlzx-8" value="Vende" style="rhombus;whiteSpace=wrap;html=1;" vertex="1" parent="1">
          <mxGeometry x="190" y="-320" width="80" height="80" as="geometry" />
        </mxCell>
        <mxCell id="EQmgPOtzV4q--lYFnlzx-9" value="" style="endArrow=none;html=1;rounded=0;exitX=0.5;exitY=0;exitDx=0;exitDy=0;entryX=0.5;entryY=1;entryDx=0;entryDy=0;" edge="1" parent="1" source="EQmgPOtzV4q--lYFnlzx-8" target="EQmgPOtzV4q--lYFnlzx-2">
          <mxGeometry width="50" height="50" relative="1" as="geometry">
            <mxPoint x="340" y="-310" as="sourcePoint" />
            <mxPoint x="390" y="-360" as="targetPoint" />
          </mxGeometry>
        </mxCell>
        <mxCell id="EQmgPOtzV4q--lYFnlzx-10" value="Comida" style="rounded=0;whiteSpace=wrap;html=1;" vertex="1" parent="1">
          <mxGeometry x="170" y="-180" width="120" height="60" as="geometry" />
        </mxCell>
        <mxCell id="EQmgPOtzV4q--lYFnlzx-11" value="" style="endArrow=none;html=1;rounded=0;exitX=0.5;exitY=0;exitDx=0;exitDy=0;entryX=0.5;entryY=1;entryDx=0;entryDy=0;" edge="1" parent="1" source="EQmgPOtzV4q--lYFnlzx-10" target="EQmgPOtzV4q--lYFnlzx-8">
          <mxGeometry width="50" height="50" relative="1" as="geometry">
            <mxPoint x="340" y="-190" as="sourcePoint" />
            <mxPoint x="390" y="-240" as="targetPoint" />
          </mxGeometry>
        </mxCell>
        <mxCell id="EQmgPOtzV4q--lYFnlzx-14" value="Nombres" style="ellipse;whiteSpace=wrap;html=1;" vertex="1" parent="1">
          <mxGeometry x="190" y="-100" width="80" height="50" as="geometry" />
        </mxCell>
        <mxCell id="EQmgPOtzV4q--lYFnlzx-16" value="Carne" style="ellipse;whiteSpace=wrap;html=1;" vertex="1" parent="1">
          <mxGeometry x="310" y="-175" width="80" height="50" as="geometry" />
        </mxCell>
        <mxCell id="EQmgPOtzV4q--lYFnlzx-17" value="Pescado" style="ellipse;whiteSpace=wrap;html=1;" vertex="1" parent="1">
          <mxGeometry x="70" y="-175" width="80" height="50" as="geometry" />
        </mxCell>
        <mxCell id="EQmgPOtzV4q--lYFnlzx-18" value="" style="endArrow=none;html=1;rounded=0;exitX=0.5;exitY=0;exitDx=0;exitDy=0;entryX=0.5;entryY=1;entryDx=0;entryDy=0;" edge="1" parent="1" source="EQmgPOtzV4q--lYFnlzx-14" target="EQmgPOtzV4q--lYFnlzx-10">
          <mxGeometry width="50" height="50" relative="1" as="geometry">
            <mxPoint x="350" y="-50" as="sourcePoint" />
            <mxPoint x="400" y="-100" as="targetPoint" />
          </mxGeometry>
        </mxCell>
        <mxCell id="EQmgPOtzV4q--lYFnlzx-19" value="" style="endArrow=none;html=1;rounded=0;exitX=1;exitY=0.5;exitDx=0;exitDy=0;entryX=0;entryY=0.5;entryDx=0;entryDy=0;" edge="1" parent="1" source="EQmgPOtzV4q--lYFnlzx-10" target="EQmgPOtzV4q--lYFnlzx-16">
          <mxGeometry width="50" height="50" relative="1" as="geometry">
            <mxPoint x="350" y="-50" as="sourcePoint" />
            <mxPoint x="400" y="-100" as="targetPoint" />
          </mxGeometry>
        </mxCell>
        <mxCell id="EQmgPOtzV4q--lYFnlzx-20" value="" style="endArrow=none;html=1;rounded=0;exitX=1;exitY=0.5;exitDx=0;exitDy=0;" edge="1" parent="1" source="EQmgPOtzV4q--lYFnlzx-17" target="EQmgPOtzV4q--lYFnlzx-10">
          <mxGeometry width="50" height="50" relative="1" as="geometry">
            <mxPoint x="350" y="-50" as="sourcePoint" />
            <mxPoint x="400" y="-100" as="targetPoint" />
          </mxGeometry>
        </mxCell>
        <mxCell id="EQmgPOtzV4q--lYFnlzx-21" value="Salario" style="ellipse;whiteSpace=wrap;html=1;" vertex="1" parent="1">
          <mxGeometry x="560" y="-370" width="80" height="50" as="geometry" />
        </mxCell>
        <mxCell id="EQmgPOtzV4q--lYFnlzx-22" value="Nombre" style="ellipse;whiteSpace=wrap;html=1;" vertex="1" parent="1">
          <mxGeometry x="700" y="-370" width="80" height="50" as="geometry" />
        </mxCell>
        <mxCell id="EQmgPOtzV4q--lYFnlzx-23" value="Puesto" style="ellipse;whiteSpace=wrap;html=1;" vertex="1" parent="1">
          <mxGeometry x="630" y="-520" width="80" height="50" as="geometry" />
        </mxCell>
        <mxCell id="EQmgPOtzV4q--lYFnlzx-24" value="" style="endArrow=none;html=1;rounded=0;exitX=0.5;exitY=0;exitDx=0;exitDy=0;entryX=0.5;entryY=1;entryDx=0;entryDy=0;" edge="1" parent="1" source="EQmgPOtzV4q--lYFnlzx-21" target="D8Nsdqt08Oqrvitqr5ih-1">
          <mxGeometry width="50" height="50" relative="1" as="geometry">
            <mxPoint x="330" y="-370" as="sourcePoint" />
            <mxPoint x="380" y="-420" as="targetPoint" />
          </mxGeometry>
        </mxCell>
        <mxCell id="EQmgPOtzV4q--lYFnlzx-25" value="" style="endArrow=none;html=1;rounded=0;entryX=0.5;entryY=0;entryDx=0;entryDy=0;exitX=0.5;exitY=1;exitDx=0;exitDy=0;" edge="1" parent="1" source="D8Nsdqt08Oqrvitqr5ih-1" target="EQmgPOtzV4q--lYFnlzx-22">
          <mxGeometry width="50" height="50" relative="1" as="geometry">
            <mxPoint x="330" y="-370" as="sourcePoint" />
            <mxPoint x="380" y="-420" as="targetPoint" />
          </mxGeometry>
        </mxCell>
        <mxCell id="EQmgPOtzV4q--lYFnlzx-26" value="" style="endArrow=none;html=1;rounded=0;exitX=0.5;exitY=0;exitDx=0;exitDy=0;entryX=0.5;entryY=1;entryDx=0;entryDy=0;" edge="1" parent="1" source="D8Nsdqt08Oqrvitqr5ih-1" target="EQmgPOtzV4q--lYFnlzx-23">
          <mxGeometry width="50" height="50" relative="1" as="geometry">
            <mxPoint x="330" y="-490" as="sourcePoint" />
            <mxPoint x="380" y="-540" as="targetPoint" />
          </mxGeometry>
        </mxCell>
        <mxCell id="EQmgPOtzV4q--lYFnlzx-27" value="Recepcionista" style="ellipse;whiteSpace=wrap;html=1;" vertex="1" parent="1">
          <mxGeometry x="510" y="-555" width="90" height="30" as="geometry" />
        </mxCell>
        <mxCell id="EQmgPOtzV4q--lYFnlzx-28" value="Camarero" style="ellipse;whiteSpace=wrap;html=1;" vertex="1" parent="1">
          <mxGeometry x="600" y="-580" width="60" height="30" as="geometry" />
        </mxCell>
        <mxCell id="EQmgPOtzV4q--lYFnlzx-29" value="Cocinero" style="ellipse;whiteSpace=wrap;html=1;" vertex="1" parent="1">
          <mxGeometry x="680" y="-580" width="60" height="30" as="geometry" />
        </mxCell>
        <mxCell id="EQmgPOtzV4q--lYFnlzx-30" value="Metre" style="ellipse;whiteSpace=wrap;html=1;" vertex="1" parent="1">
          <mxGeometry x="740" y="-555" width="60" height="30" as="geometry" />
        </mxCell>
        <mxCell id="EQmgPOtzV4q--lYFnlzx-31" value="" style="endArrow=none;html=1;rounded=0;entryX=0;entryY=0;entryDx=0;entryDy=0;exitX=1;exitY=1;exitDx=0;exitDy=0;" edge="1" parent="1" source="EQmgPOtzV4q--lYFnlzx-27" target="EQmgPOtzV4q--lYFnlzx-23">
          <mxGeometry width="50" height="50" relative="1" as="geometry">
            <mxPoint x="330" y="-490" as="sourcePoint" />
            <mxPoint x="380" y="-540" as="targetPoint" />
          </mxGeometry>
        </mxCell>
        <mxCell id="EQmgPOtzV4q--lYFnlzx-32" value="" style="endArrow=none;html=1;rounded=0;exitX=0.5;exitY=0;exitDx=0;exitDy=0;entryX=0.5;entryY=1;entryDx=0;entryDy=0;" edge="1" parent="1" source="EQmgPOtzV4q--lYFnlzx-23" target="EQmgPOtzV4q--lYFnlzx-28">
          <mxGeometry width="50" height="50" relative="1" as="geometry">
            <mxPoint x="330" y="-490" as="sourcePoint" />
            <mxPoint x="380" y="-540" as="targetPoint" />
          </mxGeometry>
        </mxCell>
        <mxCell id="EQmgPOtzV4q--lYFnlzx-33" value="" style="endArrow=none;html=1;rounded=0;exitX=1;exitY=0;exitDx=0;exitDy=0;entryX=0;entryY=1;entryDx=0;entryDy=0;" edge="1" parent="1" source="EQmgPOtzV4q--lYFnlzx-23" target="EQmgPOtzV4q--lYFnlzx-30">
          <mxGeometry width="50" height="50" relative="1" as="geometry">
            <mxPoint x="330" y="-490" as="sourcePoint" />
            <mxPoint x="380" y="-540" as="targetPoint" />
          </mxGeometry>
        </mxCell>
        <mxCell id="EQmgPOtzV4q--lYFnlzx-34" value="" style="endArrow=none;html=1;rounded=0;exitX=0.5;exitY=0;exitDx=0;exitDy=0;entryX=0.5;entryY=1;entryDx=0;entryDy=0;" edge="1" parent="1" source="EQmgPOtzV4q--lYFnlzx-23" target="EQmgPOtzV4q--lYFnlzx-29">
          <mxGeometry width="50" height="50" relative="1" as="geometry">
            <mxPoint x="330" y="-490" as="sourcePoint" />
            <mxPoint x="380" y="-540" as="targetPoint" />
          </mxGeometry>
        </mxCell>
        <mxCell id="EQmgPOtzV4q--lYFnlzx-35" value="DNI" style="ellipse;whiteSpace=wrap;html=1;" vertex="1" parent="1">
          <mxGeometry x="240" y="-820" width="60" height="30" as="geometry" />
        </mxCell>
        <mxCell id="EQmgPOtzV4q--lYFnlzx-36" value="Nombre" style="ellipse;whiteSpace=wrap;html=1;" vertex="1" parent="1">
          <mxGeometry x="160" y="-820" width="60" height="30" as="geometry" />
        </mxCell>
        <mxCell id="EQmgPOtzV4q--lYFnlzx-37" value="Apellido" style="ellipse;whiteSpace=wrap;html=1;" vertex="1" parent="1">
          <mxGeometry x="100" y="-800" width="60" height="30" as="geometry" />
        </mxCell>
        <mxCell id="EQmgPOtzV4q--lYFnlzx-38" value="Correo Electronico" style="ellipse;whiteSpace=wrap;html=1;" vertex="1" parent="1">
          <mxGeometry x="350" y="-750" width="80" height="40" as="geometry" />
        </mxCell>
        <mxCell id="EQmgPOtzV4q--lYFnlzx-39" value="Numero de Personas" style="ellipse;whiteSpace=wrap;html=1;" vertex="1" parent="1">
          <mxGeometry x="50" y="-770" width="70" height="60" as="geometry" />
        </mxCell>
        <mxCell id="EQmgPOtzV4q--lYFnlzx-40" value="Numero de Telefono" style="ellipse;whiteSpace=wrap;html=1;" vertex="1" parent="1">
          <mxGeometry x="300" y="-805" width="70" height="60" as="geometry" />
        </mxCell>
        <mxCell id="EQmgPOtzV4q--lYFnlzx-41" value="" style="endArrow=none;html=1;rounded=0;exitX=0.25;exitY=0;exitDx=0;exitDy=0;entryX=1;entryY=0.5;entryDx=0;entryDy=0;" edge="1" parent="1" source="D8Nsdqt08Oqrvitqr5ih-2" target="EQmgPOtzV4q--lYFnlzx-39">
          <mxGeometry width="50" height="50" relative="1" as="geometry">
            <mxPoint x="330" y="-730" as="sourcePoint" />
            <mxPoint x="380" y="-780" as="targetPoint" />
          </mxGeometry>
        </mxCell>
        <mxCell id="EQmgPOtzV4q--lYFnlzx-42" value="" style="endArrow=none;html=1;rounded=0;exitX=0.25;exitY=0;exitDx=0;exitDy=0;entryX=1;entryY=1;entryDx=0;entryDy=0;" edge="1" parent="1" source="D8Nsdqt08Oqrvitqr5ih-2" target="EQmgPOtzV4q--lYFnlzx-37">
          <mxGeometry width="50" height="50" relative="1" as="geometry">
            <mxPoint x="330" y="-730" as="sourcePoint" />
            <mxPoint x="380" y="-780" as="targetPoint" />
          </mxGeometry>
        </mxCell>
        <mxCell id="EQmgPOtzV4q--lYFnlzx-43" value="" style="endArrow=none;html=1;rounded=0;exitX=0.75;exitY=0;exitDx=0;exitDy=0;entryX=0;entryY=0.5;entryDx=0;entryDy=0;" edge="1" parent="1" source="D8Nsdqt08Oqrvitqr5ih-2" target="EQmgPOtzV4q--lYFnlzx-38">
          <mxGeometry width="50" height="50" relative="1" as="geometry">
            <mxPoint x="330" y="-730" as="sourcePoint" />
            <mxPoint x="380" y="-780" as="targetPoint" />
          </mxGeometry>
        </mxCell>
        <mxCell id="EQmgPOtzV4q--lYFnlzx-44" value="" style="endArrow=none;html=1;rounded=0;exitX=0.75;exitY=0;exitDx=0;exitDy=0;entryX=0;entryY=1;entryDx=0;entryDy=0;" edge="1" parent="1" source="D8Nsdqt08Oqrvitqr5ih-2" target="EQmgPOtzV4q--lYFnlzx-40">
          <mxGeometry width="50" height="50" relative="1" as="geometry">
            <mxPoint x="330" y="-730" as="sourcePoint" />
            <mxPoint x="380" y="-780" as="targetPoint" />
          </mxGeometry>
        </mxCell>
        <mxCell id="EQmgPOtzV4q--lYFnlzx-45" value="" style="endArrow=none;html=1;rounded=0;exitX=0.5;exitY=0;exitDx=0;exitDy=0;entryX=0.5;entryY=1;entryDx=0;entryDy=0;" edge="1" parent="1" source="D8Nsdqt08Oqrvitqr5ih-2" target="EQmgPOtzV4q--lYFnlzx-36">
          <mxGeometry width="50" height="50" relative="1" as="geometry">
            <mxPoint x="330" y="-730" as="sourcePoint" />
            <mxPoint x="380" y="-780" as="targetPoint" />
          </mxGeometry>
        </mxCell>
        <mxCell id="EQmgPOtzV4q--lYFnlzx-46" value="" style="endArrow=none;html=1;rounded=0;entryX=0.5;entryY=1;entryDx=0;entryDy=0;exitX=0.5;exitY=0;exitDx=0;exitDy=0;" edge="1" parent="1" source="D8Nsdqt08Oqrvitqr5ih-2" target="EQmgPOtzV4q--lYFnlzx-35">
          <mxGeometry width="50" height="50" relative="1" as="geometry">
            <mxPoint x="330" y="-730" as="sourcePoint" />
            <mxPoint x="380" y="-780" as="targetPoint" />
          </mxGeometry>
        </mxCell>
        <mxCell id="EQmgPOtzV4q--lYFnlzx-47" value="Hora" style="ellipse;whiteSpace=wrap;html=1;" vertex="1" parent="1">
          <mxGeometry x="195" y="-860" width="70" height="30" as="geometry" />
        </mxCell>
        <mxCell id="EQmgPOtzV4q--lYFnlzx-48" value="" style="endArrow=none;html=1;rounded=0;exitX=0.5;exitY=0;exitDx=0;exitDy=0;entryX=0.5;entryY=1;entryDx=0;entryDy=0;" edge="1" parent="1" source="D8Nsdqt08Oqrvitqr5ih-2" target="EQmgPOtzV4q--lYFnlzx-47">
          <mxGeometry width="50" height="50" relative="1" as="geometry">
            <mxPoint x="330" y="-610" as="sourcePoint" />
            <mxPoint x="380" y="-660" as="targetPoint" />
          </mxGeometry>
        </mxCell>
      </root>
    </mxGraphModel>
  </diagram>
</mxfile>
